<svg width="22" height="19" viewBox="0 0 22 19" fill="none" xmlns="http://www.w3.org/2000/svg">
<path d="M11.0011 16.88C11.0192 17.0313 11.0025 17.1847 10.9522 17.3286C10.902 17.4724 10.8195 17.6029 10.7111 17.71C10.5237 17.8962 10.2703 18.0008 10.0061 18.0008C9.74192 18.0008 9.48847 17.8962 9.30111 17.71L5.30111 13.71C5.18951 13.6028 5.10432 13.4711 5.05226 13.3253C5.00021 13.1795 4.98269 13.0237 5.00111 12.87V7.75L0.211108 1.62C0.048716 1.41153 -0.0245586 1.14726 0.00729555 0.88493C0.0391497 0.622602 0.173543 0.383546 0.381108 0.22C0.557047 0.0788394 0.775543 0.0013084 1.00111 0H15.0011C15.2267 0.0013084 15.4452 0.0788394 15.6211 0.22C15.8287 0.383546 15.9631 0.622602 15.9949 0.88493C16.0268 1.14726 15.9535 1.41153 15.7911 1.62L11.0011 7.75V16.88ZM3.00111 2L7.00111 7.06V12.58L9.00111 14.58V7.05L13.0011 2H3.00111ZM12.0011 14L17.0011 19L22.0011 14H12.0011Z" fill="#7CD0D7"/>
</svg>
